<?xml version="1.0" encoding="UTF-8" standalone="no"?><!DOCTYPE svg PUBLIC "-//W3C//DTD SVG 1.1//EN" "http://www.w3.org/Graphics/SVG/1.1/DTD/svg11.dtd">


<svg width="100%" height="100%" viewBox="0 0 1624 347" version="1.1" style="fill-rule:evenodd;clip-rule:evenodd;stroke-linejoin:round;stroke-miterlimit:1.41421;" id="msftlogo" aria-labelledby="msftTitle" role="img"><title id="msftTitle">Microsoft Logo</title>
<g><path d="M568.533,198.133l-9.6,27.2l-0.8,0c-1.6,-6.133 -4.533,-15.466 -9.333,-26.666l-51.467,-129.334l-50.4,0l0,206.134l33.334,0l0,-127.2c0,-8 0,-17.067 -0.267,-28.267c-0.267,-5.6 -0.8,-9.867 -1.067,-13.067l0.8,0c1.6,8 3.467,13.867 4.8,17.6l61.867,150.4l23.467,0l61.333,-151.733c1.333,-3.467 2.667,-10.4 4,-16.267l0.8,0c-0.8,15.2 -1.333,28.8 -1.6,37.067l0,130.667l35.467,0l0,-205.867l-48.534,0l-52.8,129.333Zm134.934,-71.2l34.666,0l0,147.734l-34.666,0l0,-147.734Zm17.6,-62.4c-5.867,0 -10.667,2.134 -14.667,5.867c-4,3.733 -6.133,8.533 -6.133,14.4c0,5.6 2.133,10.4 6.133,14.133c4,3.734 8.8,5.6 14.667,5.6c5.866,0 10.933,-2.133 14.666,-5.6c4,-3.733 6.134,-8.533 6.134,-14.133c0,-5.6 -2.134,-10.4 -6.134,-14.4c-3.466,-3.733 -8.533,-5.867 -14.666,-5.867m140,61.067c-6.4,-1.333 -13.067,-2.133 -19.467,-2.133c-15.733,0 -30.133,3.466 -42.133,10.4c-12,6.933 -21.6,16.533 -27.734,28.533c-6.4,12.267 -9.6,26.4 -9.6,42.667c0,14.133 3.2,26.666 9.334,38.133c6.133,11.2 14.666,20.267 26.133,26.4c10.933,6.133 23.733,9.333 38.133,9.333c16.534,0 30.667,-3.466 41.867,-9.866l0.267,-0.267l0,-32l-1.334,1.067c-5.066,3.733 -10.933,6.933 -16.8,8.8c-6.133,2.133 -11.733,3.2 -16.533,3.2c-13.867,0 -24.8,-4 -32.533,-12.8c-8,-8.534 -12,-20.267 -12,-34.934c0,-15.2 4,-27.2 12.266,-36c8.267,-8.8 19.2,-13.333 32.534,-13.333c11.2,0 22.666,3.733 33.066,11.2l1.334,1.067l0,-33.867l-0.267,-0.267c-4.533,-1.866 -9.6,-4 -16.533,-5.333m114.4,-1.067c-8.534,0 -16.534,2.667 -23.467,8.267c-5.867,4.8 -9.867,11.733 -13.333,20l-0.267,0l0,-25.867l-34.667,0l0,147.734l34.667,0l0,-75.467c0,-12.8 2.667,-23.467 8.533,-31.2c5.867,-8 13.334,-12 22.4,-12c3.2,0 6.4,0.8 10.4,1.333c3.734,1.067 6.4,2.134 8.267,3.467l1.333,1.067l0,-34.667l-0.8,-0.267c-2.4,-1.6 -7.2,-2.4 -13.066,-2.4m245.066,63.734c-10.933,-4.534 -17.866,-8 -21.066,-10.934c-2.667,-2.666 -4,-6.4 -4,-11.2c0,-4 1.6,-8 5.6,-10.666c4,-2.667 8.533,-4 15.2,-4c5.866,0 12,1.066 17.866,2.666c5.867,1.6 11.2,4 15.467,7.2l1.333,1.067l0,-32.533l-0.8,-0.267c-4,-1.6 -9.333,-3.2 -15.733,-4.533c-6.4,-1.067 -12.267,-1.6 -17.067,-1.6c-16.533,0 -30.133,4 -40.8,12.8c-10.666,8.266 -15.733,19.466 -15.733,32.533c0,6.933 1.067,13.067 3.467,18.133c2.4,5.067 5.866,9.867 10.666,13.867c4.8,3.733 11.734,8 21.334,12c8,3.467 14.133,6.133 17.866,8.267c3.734,2.133 6.134,4.533 8,6.4c1.334,2.133 2.134,4.8 2.134,8.266c0,9.867 -7.467,14.667 -22.667,14.667c-5.867,0 -12,-1.067 -19.2,-3.467c-7.2,-2.4 -13.867,-5.866 -19.467,-9.866l-1.333,-1.067l0,33.867l0.8,0.266c5.067,2.4 11.2,4 18.667,5.867c7.466,1.333 14.133,2.4 20,2.4c17.866,0 32.533,-4 42.933,-12.8c10.667,-8.533 16.267,-19.467 16.267,-33.6c0,-9.867 -2.667,-18.667 -8.534,-25.333c-7.733,-6.4 -17.333,-13.067 -31.2,-18.4m320,43.2c0,31.2 14.667,46.933 44,46.933c4.8,0 9.867,-0.8 14.667,-1.6c5.067,-1.067 8.8,-2.4 10.933,-3.467l0.267,-0.266l0,-28.534l-1.333,1.067c-2.134,1.333 -4,2.4 -7.2,3.2c-2.667,0.8 -5.067,1.067 -6.934,1.067c-6.933,0 -11.733,-1.6 -15.2,-5.6c-3.2,-3.734 -4.8,-9.867 -4.8,-18.934l0,-78.666l0.534,0l0,-63.467l-1.067,0.267l-33.067,9.866l-0.8,0.267l0,137.867Zm-52.266,-123.2c0,-8.534 2.133,-15.2 5.866,-19.467c3.734,-4.267 9.334,-6.4 16.267,-6.4c4.8,0 9.867,1.067 15.467,3.467l1.333,0.8l0,-30.134l-0.8,-0.266c-4.8,-1.6 -11.2,-2.667 -19.467,-2.667c-10.4,0 -19.466,2.4 -27.733,6.4c-8.267,4.533 -14.4,10.667 -18.933,18.933c-4.534,8 -6.934,17.067 -6.934,27.467l0,168.267l34.934,0l0,-166.4Zm-21.6,47.2l143.733,0l0,-28.534l-181.333,0l0,28.267l37.6,0l0,0.267Z" style="fill:#fff;fill-rule:nonzero;"/>
<path id="o" d="M1069.87,123.733c-24.267,0 -43.734,7.2 -57.334,21.334c-13.866,14.133 -20.533,33.6 -20.533,58.133c0,22.933 6.933,41.6 20.267,55.2c13.333,13.333 31.466,20.267 54.133,20.267c23.733,0 42.667,-7.2 56.267,-21.6c13.866,-14.4 20.533,-33.6 20.533,-57.334c0,-23.466 -6.4,-42.133 -19.467,-55.733c-12.533,-13.6 -30.933,-20.267 -53.866,-20.267m27.733,113.6c-6.4,8.267 -16.533,12.267 -29.067,12.267c-12.533,0 -22.666,-4 -29.866,-12.8c-7.2,-8.267 -10.667,-20.267 -10.667,-35.467c0,-15.733 3.733,-27.733 10.667,-36.266c7.2,-8.534 17.066,-12.8 29.6,-12.8c12.266,0 21.866,4 28.8,12.266c6.933,8.267 10.666,20.267 10.666,36c-0.533,16 -3.466,28.534 -10.133,36.8" style="fill:#fff;fill-rule:nonzero;"/>
<path id="o1" serif:id="o" d="M1351.73,123.733c-24.266,0 -43.733,7.2 -57.333,21.334c-13.867,14.133 -20.533,33.6 -20.533,58.133c0,22.933 6.933,41.6 20.266,55.2c13.334,13.333 31.467,20.267 54.134,20.267c23.733,0 42.666,-7.2 56.266,-21.6c13.867,-14.4 20.534,-33.6 20.534,-57.334c0,-23.466 -6.4,-42.133 -19.467,-55.733c-12.533,-13.6 -30.933,-20.267 -53.867,-20.267m27.734,113.6c-6.4,8.267 -16.534,12.267 -29.067,12.267c-12.533,0 -22.667,-4 -29.867,-12.8c-7.2,-8.267 -10.666,-20.267 -10.666,-35.467c0,-15.733 3.733,-27.733 10.666,-36.266c7.2,-8.534 17.067,-12.8 29.6,-12.8c12.267,0 21.867,4 28.8,12.266c6.934,8.267 10.667,20.267 10.667,36c-0.533,16 -3.467,28.534 -10.133,36.8" style="fill:#fff;fill-rule:nonzero;"/>
</g><rect x="0" y="0" width="163.467" height="163.467" style="fill:#f25022;fill-rule:nonzero;"/>
<rect x="180.533" y="0" width="163.467" height="163.467" style="fill:#7fba00;fill-rule:nonzero;"/>
<rect x="0" y="180.533" width="163.467" height="163.467" style="fill:#00a4ef;fill-rule:nonzero;"/>
<rect x="180.533" y="180.533" width="163.467" height="163.467" style="fill:#ffb900;fill-rule:nonzero;"/>
</svg>