<?xml version="1.0" encoding="UTF-8" standalone="no"?><!DOCTYPE svg PUBLIC "-//W3C//DTD SVG 1.1//EN" "http://www.w3.org/Graphics/SVG/1.1/DTD/svg11.dtd">


<svg width="100%" height="100%" viewBox="0 0 512 512" version="1.1" style="fill-rule:evenodd;clip-rule:evenodd;stroke-linejoin:round;stroke-miterlimit:1.41421;" id="Twtlogo" aria-labelledby="TwTTitle" role="img"><title id="TwTTitle">Twitter icon</title>
<path d="M512,97.262c-18.844,8.35 -39.064,14.013 -60.309,16.541c21.692,-12.99 38.297,-33.594 46.167,-58.069c-20.348,12.029 -42.808,20.764 -66.74,25.499c-19.164,-20.444 -46.423,-33.178 -76.658,-33.178c-58.004,0 -105.036,47.031 -105.036,105.005c0,8.222 0.928,16.252 2.72,23.931c-87.279,-4.383 -164.672,-46.199 -216.47,-109.74c-9.055,15.486 -14.206,33.529 -14.206,52.79c0,36.442 18.557,68.596 46.712,87.408c-17.213,-0.576 -33.402,-5.311 -47.575,-13.182l0,1.312c0,50.87 36.217,93.326 84.24,102.989c-8.799,2.368 -18.077,3.679 -27.675,3.679c-6.783,0 -13.342,-0.671 -19.772,-1.951c13.373,41.752 52.15,72.114 98.094,72.946c-35.93,28.155 -81.234,44.888 -130.44,44.888c-8.478,0 -16.829,-0.512 -25.051,-1.44c46.487,29.851 101.677,47.256 160.994,47.256c193.211,0 298.824,-160.035 298.824,-298.824l-0.353,-13.598c20.636,-14.718 38.488,-33.21 52.534,-54.262Z" style="fill:#fff;fill-rule:nonzero;"/>
</svg>