<?xml version="1.0" encoding="UTF-8" standalone="no"?><!DOCTYPE svg PUBLIC "-//W3C//DTD SVG 1.1//EN" "http://www.w3.org/Graphics/SVG/1.1/DTD/svg11.dtd">


<svg width="100%" height="100%" viewBox="0 0 462 462" version="1.1" style="fill-rule:evenodd;clip-rule:evenodd;stroke-linejoin:round;stroke-miterlimit:1.41421;" id="ytlogo" aria-labelledby="ytTitle" role="img"><title id="ytTitle">YouTube icon</title>
<path d="M365.257,67.393l-269.513,0c-52.878,0 -95.744,42.866 -95.744,95.744l0,134.728c0,52.878 42.866,95.744 95.744,95.744l269.513,0c52.878,0 95.744,-42.866 95.744,-95.744l0,-134.728c0,-52.878 -42.866,-95.744 -95.744,-95.744Zm-64.751,169.663l-126.06,60.123c-3.359,1.602 -7.239,-0.847 -7.239,-4.568l0,-124.004c0,-3.774 3.982,-6.22 7.348,-4.514l126.06,63.881c3.748,1.899 3.683,7.274 -0.109,9.082Z" style="fill:#fff;fill-rule:nonzero;"/>
</svg>